<svg xmlns="http://www.w3.org/2000/svg" xmlns:xlink="http://www.w3.org/1999/xlink" width="1629" height="1638" contentScriptType="application/ecmascript" contentStyleType="text/css" style="width:1629px;height:1638px" preserveAspectRatio="none" version="1.1" viewBox="0 0 1629 1638" zoomAndPan="magnify"><defs><filter id="fhcj2z8" width="300%" height="300%" x="-1" y="-1"><feGaussianBlur result="blurOut" stdDeviation="2"/><feColorMatrix in="blurOut" result="blurOut2" type="matrix" values="0 0 0 0 0 0 0 0 0 0 0 0 0 0 0 0 0 0 .4 0"/><feOffset dx="4" dy="4" in="blurOut2" result="blurOut3"/><feBlend in="SourceGraphic" in2="blurOut3" mode="normal"/></filter></defs><g><rect style="stroke:#a80036;stroke-width:1" width="167" height="1633.262" x="4" y="4" fill="#ADD8E6"/><text x="7" y="16.568" fill="#000" font-family="sans-serif" font-size="13" font-weight="bold" lengthAdjust="spacingAndGlyphs" textLength="161">node0 - Command Line</text><rect style="stroke:#a80036;stroke-width:1" width="164" height="1633.262" x="351.5" y="4" fill="#ADD8E6"/><text x="354.5" y="16.568" fill="#000" font-family="sans-serif" font-size="13" font-weight="bold" lengthAdjust="spacingAndGlyphs" textLength="158">node0 - Docker Service</text><rect style="stroke:#a80036;stroke-width:1" width="410" height="1633.262" x="589.5" y="4" fill="#ADD8E6"/><text x="709.5" y="16.568" fill="#000" font-family="sans-serif" font-size="13" font-weight="bold" lengthAdjust="spacingAndGlyphs" textLength="170">node0 - REX-Ray Service</text><rect style="stroke:#a80036;stroke-width:1" width="196" height="1633.262" x="1091" y="4" fill="#ADD8E6"/><text x="1094" y="16.568" fill="#000" font-family="sans-serif" font-size="13" font-weight="bold" lengthAdjust="spacingAndGlyphs" textLength="190">node0 - libStorage Executor</text><rect style="stroke:#a80036;stroke-width:1" width="176" height="1633.262" x="1289" y="4" fill="#90EE90"/><text x="1292" y="16.568" fill="#000" font-family="sans-serif" font-size="13" font-weight="bold" lengthAdjust="spacingAndGlyphs" textLength="170">node1 - REX-Ray Service</text><line style="stroke:#a80036;stroke-width:1;stroke-dasharray:5,5" x1="87" x2="87" y1="58.799" y2="1598.773"/><line style="stroke:#a80036;stroke-width:1;stroke-dasharray:5,5" x1="433.5" x2="433.5" y1="58.799" y2="1598.773"/><line style="stroke:#a80036;stroke-width:1;stroke-dasharray:5,5" x1="652.5" x2="652.5" y1="58.799" y2="1598.773"/><line style="stroke:#a80036;stroke-width:1;stroke-dasharray:5,5" x1="929.5" x2="929.5" y1="58.799" y2="1598.773"/><line style="stroke:#a80036;stroke-width:1;stroke-dasharray:5,5" x1="1188.5" x2="1188.5" y1="58.799" y2="1598.773"/><line style="stroke:#a80036;stroke-width:1;stroke-dasharray:5,5" x1="1377" x2="1377" y1="58.799" y2="1598.773"/><rect style="stroke:#a80036;stroke-width:1.5" width="87" height="30.488" x="42" y="23.311" fill="#FEFECE" filter="url(#fhcj2z8)"/><text x="49" y="43.846" fill="#000" font-family="sans-serif" font-size="14" lengthAdjust="spacingAndGlyphs" textLength="73">Docker CLI</text><rect style="stroke:#a80036;stroke-width:1.5" width="87" height="30.488" x="42" y="1597.773" fill="#FEFECE" filter="url(#fhcj2z8)"/><text x="49" y="1618.309" fill="#000" font-family="sans-serif" font-size="14" lengthAdjust="spacingAndGlyphs" textLength="73">Docker CLI</text><rect style="stroke:#a80036;stroke-width:1.5" width="88" height="30.488" x="387.5" y="23.311" fill="#FEFECE" filter="url(#fhcj2z8)"/><text x="394.5" y="43.846" fill="#000" font-family="sans-serif" font-size="14" lengthAdjust="spacingAndGlyphs" textLength="74">Docker API</text><rect style="stroke:#a80036;stroke-width:1.5" width="88" height="30.488" x="387.5" y="1597.773" fill="#FEFECE" filter="url(#fhcj2z8)"/><text x="394.5" y="1618.309" fill="#000" font-family="sans-serif" font-size="14" lengthAdjust="spacingAndGlyphs" textLength="74">Docker API</text><rect style="stroke:#a80036;stroke-width:1.5" width="114" height="30.488" x="593.5" y="23.311" fill="#FEFECE" filter="url(#fhcj2z8)"/><text x="600.5" y="43.846" fill="#000" font-family="sans-serif" font-size="14" lengthAdjust="spacingAndGlyphs" textLength="100">scaleio01.sock</text><rect style="stroke:#a80036;stroke-width:1.5" width="114" height="30.488" x="593.5" y="1597.773" fill="#FEFECE" filter="url(#fhcj2z8)"/><text x="600.5" y="1618.309" fill="#000" font-family="sans-serif" font-size="14" lengthAdjust="spacingAndGlyphs" textLength="100">scaleio01.sock</text><rect style="stroke:#a80036;stroke-width:1.5" width="128" height="30.488" x="863.5" y="23.311" fill="#FEFECE" filter="url(#fhcj2z8)"/><text x="870.5" y="43.846" fill="#000" font-family="sans-serif" font-size="14" lengthAdjust="spacingAndGlyphs" textLength="114">libStorage Client</text><rect style="stroke:#a80036;stroke-width:1.5" width="128" height="30.488" x="863.5" y="1597.773" fill="#FEFECE" filter="url(#fhcj2z8)"/><text x="870.5" y="1618.309" fill="#000" font-family="sans-serif" font-size="14" lengthAdjust="spacingAndGlyphs" textLength="114">libStorage Client</text><rect style="stroke:#a80036;stroke-width:1.5" width="77" height="30.488" x="1148.5" y="23.311" fill="#FEFECE" filter="url(#fhcj2z8)"/><text x="1155.5" y="43.846" fill="#000" font-family="sans-serif" font-size="14" lengthAdjust="spacingAndGlyphs" textLength="63">lsx-linux</text><rect style="stroke:#a80036;stroke-width:1.5" width="77" height="30.488" x="1148.5" y="1597.773" fill="#FEFECE" filter="url(#fhcj2z8)"/><text x="1155.5" y="1618.309" fill="#000" font-family="sans-serif" font-size="14" lengthAdjust="spacingAndGlyphs" textLength="63">lsx-linux</text><rect style="stroke:#a80036;stroke-width:1.5" width="110" height="30.488" x="1320" y="23.311" fill="#FEFECE" filter="url(#fhcj2z8)"/><text x="1327" y="43.846" fill="#000" font-family="sans-serif" font-size="14" lengthAdjust="spacingAndGlyphs" textLength="96">libStorage API</text><rect style="stroke:#a80036;stroke-width:1.5" width="110" height="30.488" x="1320" y="1597.773" fill="#FEFECE" filter="url(#fhcj2z8)"/><text x="1327" y="1618.309" fill="#000" font-family="sans-serif" font-size="14" lengthAdjust="spacingAndGlyphs" textLength="96">libStorage API</text><polygon fill="#A80036" points="421.5 85.799 431.5 89.799 421.5 93.799 425.5 89.799" style="stroke:#a80036;stroke-width:1"/><line style="stroke:#a80036;stroke-width:1" x1="87.5" x2="427.5" y1="89.799" y2="89.799"/><text x="94.5" y="85.367" fill="#000" font-family="sans-serif" font-size="13" font-weight="bold" lengthAdjust="spacingAndGlyphs" textLength="9">1</text><text x="107.5" y="85.367" fill="#000" font-family="sans-serif" font-size="13" lengthAdjust="spacingAndGlyphs" textLength="234">Create container request --scaleio01</text><polygon fill="#A80036" points="640.5 140.109 650.5 144.109 640.5 148.109 644.5 144.109" style="stroke:#a80036;stroke-width:1"/><line style="stroke:#a80036;stroke-width:1" x1="433.5" x2="646.5" y1="144.109" y2="144.109"/><text x="440.5" y="139.678" fill="#000" font-family="sans-serif" font-size="13" font-weight="bold" lengthAdjust="spacingAndGlyphs" textLength="9">2</text><text x="453.5" y="139.678" fill="#000" font-family="sans-serif" font-size="13" lengthAdjust="spacingAndGlyphs" textLength="141">Create volume request</text><polygon fill="#A80036" points="917.5 194.42 927.5 198.42 917.5 202.42 921.5 198.42" style="stroke:#a80036;stroke-width:1"/><line style="stroke:#a80036;stroke-width:1" x1="652.5" x2="923.5" y1="198.42" y2="198.42"/><text x="659.5" y="193.988" fill="#000" font-family="sans-serif" font-size="13" font-weight="bold" lengthAdjust="spacingAndGlyphs" textLength="9">3</text><text x="672.5" y="193.988" fill="#000" font-family="sans-serif" font-size="13" lengthAdjust="spacingAndGlyphs" textLength="221">Create volume request --scaleio01</text><polygon fill="#A80036" points="1365 248.731 1375 252.731 1365 256.731 1369 252.731" style="stroke:#a80036;stroke-width:1"/><line style="stroke:#a80036;stroke-width:1" x1="929.5" x2="1371" y1="252.731" y2="252.731"/><text x="936.5" y="248.299" fill="#000" font-family="sans-serif" font-size="13" font-weight="bold" lengthAdjust="spacingAndGlyphs" textLength="9">4</text><text x="949.5" y="248.299" fill="#000" font-family="sans-serif" font-size="13" lengthAdjust="spacingAndGlyphs" textLength="129">List services request</text><polygon fill="#A80036" points="940.5 278.041 930.5 282.041 940.5 286.041 936.5 282.041" style="stroke:#a80036;stroke-width:1"/><line style="stroke:#a80036;stroke-width:1;stroke-dasharray:2,2" x1="934.5" x2="1376" y1="282.041" y2="282.041"/><text x="946.5" y="277.609" fill="#000" font-family="sans-serif" font-size="13" font-weight="bold" lengthAdjust="spacingAndGlyphs" textLength="9">5</text><text x="959.5" y="277.609" fill="#000" font-family="sans-serif" font-size="13" lengthAdjust="spacingAndGlyphs" textLength="139">List services response</text><polygon fill="#A80036" points="1365 332.352 1375 336.352 1365 340.352 1369 336.352" style="stroke:#a80036;stroke-width:1"/><line style="stroke:#a80036;stroke-width:1" x1="929.5" x2="1371" y1="336.352" y2="336.352"/><text x="936.5" y="331.92" fill="#000" font-family="sans-serif" font-size="13" font-weight="bold" lengthAdjust="spacingAndGlyphs" textLength="9">6</text><text x="949.5" y="331.92" fill="#000" font-family="sans-serif" font-size="13" lengthAdjust="spacingAndGlyphs" textLength="160">Get executor info request</text><polygon fill="#A80036" points="940.5 361.662 930.5 365.662 940.5 369.662 936.5 365.662" style="stroke:#a80036;stroke-width:1"/><line style="stroke:#a80036;stroke-width:1;stroke-dasharray:2,2" x1="934.5" x2="1376" y1="365.662" y2="365.662"/><text x="946.5" y="361.231" fill="#000" font-family="sans-serif" font-size="13" font-weight="bold" lengthAdjust="spacingAndGlyphs" textLength="9">7</text><text x="959.5" y="361.231" fill="#000" font-family="sans-serif" font-size="13" lengthAdjust="spacingAndGlyphs" textLength="170">Get executor info response</text><polygon fill="#A80036" points="1365 415.973 1375 419.973 1365 423.973 1369 419.973" style="stroke:#a80036;stroke-width:1"/><line style="stroke:#a80036;stroke-width:1" x1="929.5" x2="1371" y1="419.973" y2="419.973"/><text x="936.5" y="415.541" fill="#000" font-family="sans-serif" font-size="13" font-weight="bold" lengthAdjust="spacingAndGlyphs" textLength="9">8</text><text x="949.5" y="415.541" fill="#000" font-family="sans-serif" font-size="13" lengthAdjust="spacingAndGlyphs" textLength="216">Download executor binary request</text><polygon fill="#A80036" points="940.5 445.283 930.5 449.283 940.5 453.283 936.5 449.283" style="stroke:#a80036;stroke-width:1"/><line style="stroke:#a80036;stroke-width:1;stroke-dasharray:2,2" x1="934.5" x2="1376" y1="449.283" y2="449.283"/><text x="946.5" y="444.852" fill="#000" font-family="sans-serif" font-size="13" font-weight="bold" lengthAdjust="spacingAndGlyphs" textLength="9">9</text><text x="959.5" y="444.852" fill="#000" font-family="sans-serif" font-size="13" lengthAdjust="spacingAndGlyphs" textLength="226">Download executor binary response</text><polygon fill="#A80036" points="1177 542.87 1187 546.87 1177 550.87 1181 546.87" style="stroke:#a80036;stroke-width:1"/><line style="stroke:#a80036;stroke-width:1" x1="929.5" x2="1183" y1="546.87" y2="546.87"/><text x="936.5" y="542.438" fill="#000" font-family="sans-serif" font-size="13" font-weight="bold" lengthAdjust="spacingAndGlyphs" textLength="18">10</text><text x="958.5" y="542.438" fill="#000" font-family="sans-serif" font-size="13" lengthAdjust="spacingAndGlyphs" textLength="147">Get instance ID request</text><polygon fill="#FBFB77" points="630 487.594 630 588.594 920 588.594 920 497.594 910 487.594 630 487.594" filter="url(#fhcj2z8)" style="stroke:#a80036;stroke-width:1"/><line style="stroke:#a80036;stroke-width:1" x1="910" x2="910" y1="487.594" y2="497.594"/><line style="stroke:#a80036;stroke-width:1" x1="920" x2="910" y1="497.594" y2="497.594"/><text x="636" y="505.162" fill="#000" font-family="sans-serif" font-size="13" lengthAdjust="spacingAndGlyphs" textLength="20">10.</text><text x="660" y="505.162" fill="#000" font-family="sans-serif" font-size="13" font-weight="bold" lengthAdjust="spacingAndGlyphs" textLength="158">Get instance ID request</text><text x="636" y="535.783" fill="#000" font-family="sans-serif" font-size="13" lengthAdjust="spacingAndGlyphs" textLength="222">The instance ID is generated by the</text><text x="636" y="551.094" fill="#000" font-family="sans-serif" font-size="13" lengthAdjust="spacingAndGlyphs" textLength="269">libStorage executor on the local system --</text><text x="636" y="566.404" fill="#000" font-family="sans-serif" font-size="13" lengthAdjust="spacingAndGlyphs" textLength="235">that is the same system on which the</text><text x="636" y="581.715" fill="#000" font-family="sans-serif" font-size="13" lengthAdjust="spacingAndGlyphs" textLength="236">libStorage client process is executing</text><polygon fill="#A80036" points="940.5 615.457 930.5 619.457 940.5 623.457 936.5 619.457" style="stroke:#a80036;stroke-width:1"/><line style="stroke:#a80036;stroke-width:1;stroke-dasharray:2,2" x1="934.5" x2="1188" y1="619.457" y2="619.457"/><text x="946.5" y="615.025" fill="#000" font-family="sans-serif" font-size="13" font-weight="bold" lengthAdjust="spacingAndGlyphs" textLength="18">11</text><text x="968.5" y="615.025" fill="#000" font-family="sans-serif" font-size="13" lengthAdjust="spacingAndGlyphs" textLength="157">Get instance ID response</text><polygon fill="#A80036" points="1365 705.389 1375 709.389 1365 713.389 1369 709.389" style="stroke:#a80036;stroke-width:1"/><line style="stroke:#a80036;stroke-width:1" x1="929.5" x2="1371" y1="709.389" y2="709.389"/><text x="936.5" y="704.957" fill="#000" font-family="sans-serif" font-size="13" font-weight="bold" lengthAdjust="spacingAndGlyphs" textLength="18">12</text><text x="958.5" y="704.957" fill="#000" font-family="sans-serif" font-size="13" lengthAdjust="spacingAndGlyphs" textLength="154">Inspect instance request</text><polygon fill="#FBFB77" points="1382 657.768 1382 743.768 1593 743.768 1593 667.768 1583 657.768 1382 657.768" filter="url(#fhcj2z8)" style="stroke:#a80036;stroke-width:1"/><line style="stroke:#a80036;stroke-width:1" x1="1583" x2="1583" y1="657.768" y2="667.768"/><line style="stroke:#a80036;stroke-width:1" x1="1593" x2="1583" y1="667.768" y2="667.768"/><text x="1388" y="675.336" fill="#000" font-family="sans-serif" font-size="13" lengthAdjust="spacingAndGlyphs" textLength="20">12.</text><text x="1412" y="675.336" fill="#000" font-family="sans-serif" font-size="13" font-weight="bold" lengthAdjust="spacingAndGlyphs" textLength="166">Inspect instance request</text><text x="1388" y="705.957" fill="#000" font-family="sans-serif" font-size="13" lengthAdjust="spacingAndGlyphs" textLength="144">The Instance ID is sent</text><text x="1388" y="721.268" fill="#000" font-family="sans-serif" font-size="13" lengthAdjust="spacingAndGlyphs" textLength="125">via the HTTP header</text><text x="1388" y="736.578" fill="#000" font-family="sans-serif" font-size="13" lengthAdjust="spacingAndGlyphs" textLength="149">&quot;Libstorage-Instanceid&quot;</text><polygon fill="#A80036" points="940.5 805.941 930.5 809.941 940.5 813.941 936.5 809.941" style="stroke:#a80036;stroke-width:1"/><line style="stroke:#a80036;stroke-width:1;stroke-dasharray:2,2" x1="934.5" x2="1376" y1="809.941" y2="809.941"/><text x="946.5" y="805.51" fill="#000" font-family="sans-serif" font-size="13" font-weight="bold" lengthAdjust="spacingAndGlyphs" textLength="18">13</text><text x="968.5" y="805.51" fill="#000" font-family="sans-serif" font-size="13" lengthAdjust="spacingAndGlyphs" textLength="164">Inspect instance response</text><polygon fill="#FBFB77" points="1382 758.32 1382 844.32 1603 844.32 1603 768.32 1593 758.32 1382 758.32" filter="url(#fhcj2z8)" style="stroke:#a80036;stroke-width:1"/><line style="stroke:#a80036;stroke-width:1" x1="1593" x2="1593" y1="758.32" y2="768.32"/><line style="stroke:#a80036;stroke-width:1" x1="1603" x2="1593" y1="768.32" y2="768.32"/><text x="1388" y="775.889" fill="#000" font-family="sans-serif" font-size="13" lengthAdjust="spacingAndGlyphs" textLength="20">13.</text><text x="1412" y="775.889" fill="#000" font-family="sans-serif" font-size="13" font-weight="bold" lengthAdjust="spacingAndGlyphs" textLength="176">Inspect instance response</text><text x="1388" y="806.51" fill="#000" font-family="sans-serif" font-size="13" lengthAdjust="spacingAndGlyphs" textLength="145">The inspected instance</text><text x="1388" y="821.82" fill="#000" font-family="sans-serif" font-size="13" lengthAdjust="spacingAndGlyphs" textLength="135">is written to the body</text><text x="1388" y="837.131" fill="#000" font-family="sans-serif" font-size="13" lengthAdjust="spacingAndGlyphs" textLength="135">of the HTTP response</text><polygon fill="#A80036" points="1365 946.805 1375 950.805 1365 954.805 1369 950.805" style="stroke:#a80036;stroke-width:1"/><line style="stroke:#a80036;stroke-width:1" x1="929.5" x2="1371" y1="950.805" y2="950.805"/><text x="936.5" y="946.373" fill="#000" font-family="sans-serif" font-size="13" font-weight="bold" lengthAdjust="spacingAndGlyphs" textLength="18">14</text><text x="958.5" y="946.373" fill="#000" font-family="sans-serif" font-size="13" lengthAdjust="spacingAndGlyphs" textLength="141">Create volume request</text><polygon fill="#FBFB77" points="1382 883.873 1382 1000.873 1620 1000.873 1620 893.873 1610 883.873 1382 883.873" filter="url(#fhcj2z8)" style="stroke:#a80036;stroke-width:1"/><line style="stroke:#a80036;stroke-width:1" x1="1610" x2="1610" y1="883.873" y2="893.873"/><line style="stroke:#a80036;stroke-width:1" x1="1620" x2="1610" y1="893.873" y2="893.873"/><text x="1388" y="901.441" fill="#000" font-family="sans-serif" font-size="13" lengthAdjust="spacingAndGlyphs" textLength="20">14.</text><text x="1412" y="901.441" fill="#000" font-family="sans-serif" font-size="13" font-weight="bold" lengthAdjust="spacingAndGlyphs" textLength="154">Create volume request</text><text x="1388" y="932.063" fill="#000" font-family="sans-serif" font-size="13" lengthAdjust="spacingAndGlyphs" textLength="175">All future requests from the</text><text x="1388" y="947.373" fill="#000" font-family="sans-serif" font-size="13" lengthAdjust="spacingAndGlyphs" textLength="212">libStorage Client to the libStorage</text><text x="1388" y="962.684" fill="#000" font-family="sans-serif" font-size="13" lengthAdjust="spacingAndGlyphs" textLength="185">API will include the inspected</text><text x="1388" y="977.994" fill="#000" font-family="sans-serif" font-size="13" lengthAdjust="spacingAndGlyphs" textLength="217">instance information in the header</text><text x="1388" y="993.305" fill="#000" font-family="sans-serif" font-size="13" lengthAdjust="spacingAndGlyphs" textLength="149">&quot;Libstorage-Instanceid&quot;</text><polygon fill="#A80036" points="940.5 1027.047 930.5 1031.047 940.5 1035.047 936.5 1031.047" style="stroke:#a80036;stroke-width:1"/><line style="stroke:#a80036;stroke-width:1;stroke-dasharray:2,2" x1="934.5" x2="1376" y1="1031.047" y2="1031.047"/><text x="946.5" y="1026.615" fill="#000" font-family="sans-serif" font-size="13" font-weight="bold" lengthAdjust="spacingAndGlyphs" textLength="18">15</text><text x="968.5" y="1026.615" fill="#000" font-family="sans-serif" font-size="13" lengthAdjust="spacingAndGlyphs" textLength="151">Create volume response</text><polygon fill="#A80036" points="1365 1081.357 1375 1085.357 1365 1089.357 1369 1085.357" style="stroke:#a80036;stroke-width:1"/><line style="stroke:#a80036;stroke-width:1" x1="929.5" x2="1371" y1="1085.357" y2="1085.357"/><text x="936.5" y="1080.926" fill="#000" font-family="sans-serif" font-size="13" font-weight="bold" lengthAdjust="spacingAndGlyphs" textLength="18">16</text><text x="958.5" y="1080.926" fill="#000" font-family="sans-serif" font-size="13" lengthAdjust="spacingAndGlyphs" textLength="142">Attach volume request</text><polygon fill="#A80036" points="940.5 1110.668 930.5 1114.668 940.5 1118.668 936.5 1114.668" style="stroke:#a80036;stroke-width:1"/><line style="stroke:#a80036;stroke-width:1;stroke-dasharray:2,2" x1="934.5" x2="1376" y1="1114.668" y2="1114.668"/><text x="946.5" y="1110.236" fill="#000" font-family="sans-serif" font-size="13" font-weight="bold" lengthAdjust="spacingAndGlyphs" textLength="18">17</text><text x="968.5" y="1110.236" fill="#000" font-family="sans-serif" font-size="13" lengthAdjust="spacingAndGlyphs" textLength="152">Attach volume response</text><line style="stroke:#a80036;stroke-width:1" x1="929.5" x2="971.5" y1="1169.289" y2="1169.289"/><line style="stroke:#a80036;stroke-width:1" x1="971.5" x2="971.5" y1="1169.289" y2="1182.289"/><line style="stroke:#a80036;stroke-width:1" x1="930.5" x2="971.5" y1="1182.289" y2="1182.289"/><polygon fill="#A80036" points="940.5 1178.289 930.5 1182.289 940.5 1186.289 936.5 1182.289" style="stroke:#a80036;stroke-width:1"/><text x="936.5" y="1164.547" fill="#000" font-family="sans-serif" font-size="13" font-weight="bold" lengthAdjust="spacingAndGlyphs" textLength="18">18</text><text x="958.5" y="1164.547" fill="#000" font-family="sans-serif" font-size="13" lengthAdjust="spacingAndGlyphs" textLength="141">Mount volume request</text><line style="stroke:#a80036;stroke-width:1;stroke-dasharray:2,2" x1="929.5" x2="971.5" y1="1211.6" y2="1211.6"/><line style="stroke:#a80036;stroke-width:1;stroke-dasharray:2,2" x1="971.5" x2="971.5" y1="1211.6" y2="1224.6"/><line style="stroke:#a80036;stroke-width:1;stroke-dasharray:2,2" x1="930.5" x2="971.5" y1="1224.6" y2="1224.6"/><polygon fill="#A80036" points="940.5 1220.6 930.5 1224.6 940.5 1228.6 936.5 1224.6" style="stroke:#a80036;stroke-width:1"/><text x="936.5" y="1206.857" fill="#000" font-family="sans-serif" font-size="13" font-weight="bold" lengthAdjust="spacingAndGlyphs" textLength="18">19</text><text x="958.5" y="1206.857" fill="#000" font-family="sans-serif" font-size="13" lengthAdjust="spacingAndGlyphs" textLength="151">Mount volume response</text><polygon fill="#A80036" points="1177 1274.6 1187 1278.6 1177 1282.6 1181 1278.6" style="stroke:#a80036;stroke-width:1"/><line style="stroke:#a80036;stroke-width:1" x1="929.5" x2="1183" y1="1278.6" y2="1278.6"/><text x="936.5" y="1274.168" fill="#000" font-family="sans-serif" font-size="13" font-weight="bold" lengthAdjust="spacingAndGlyphs" textLength="18">20</text><text x="958.5" y="1274.168" fill="#000" font-family="sans-serif" font-size="13" lengthAdjust="spacingAndGlyphs" textLength="150">Wait for volume request</text><polygon fill="#A80036" points="940.5 1303.91 930.5 1307.91 940.5 1311.91 936.5 1307.91" style="stroke:#a80036;stroke-width:1"/><line style="stroke:#a80036;stroke-width:1;stroke-dasharray:2,2" x1="934.5" x2="1188" y1="1307.91" y2="1307.91"/><text x="946.5" y="1303.478" fill="#000" font-family="sans-serif" font-size="13" font-weight="bold" lengthAdjust="spacingAndGlyphs" textLength="18">21</text><text x="968.5" y="1303.478" fill="#000" font-family="sans-serif" font-size="13" lengthAdjust="spacingAndGlyphs" textLength="160">Wait for volume response</text><line style="stroke:#a80036;stroke-width:1" x1="929.5" x2="971.5" y1="1362.531" y2="1362.531"/><line style="stroke:#a80036;stroke-width:1" x1="971.5" x2="971.5" y1="1362.531" y2="1375.531"/><line style="stroke:#a80036;stroke-width:1" x1="930.5" x2="971.5" y1="1375.531" y2="1375.531"/><polygon fill="#A80036" points="940.5 1371.531 930.5 1375.531 940.5 1379.531 936.5 1375.531" style="stroke:#a80036;stroke-width:1"/><text x="936.5" y="1357.789" fill="#000" font-family="sans-serif" font-size="13" font-weight="bold" lengthAdjust="spacingAndGlyphs" textLength="18">22</text><text x="958.5" y="1357.789" fill="#000" font-family="sans-serif" font-size="13" lengthAdjust="spacingAndGlyphs" textLength="145">Format volume request</text><line style="stroke:#a80036;stroke-width:1;stroke-dasharray:2,2" x1="929.5" x2="971.5" y1="1404.842" y2="1404.842"/><line style="stroke:#a80036;stroke-width:1;stroke-dasharray:2,2" x1="971.5" x2="971.5" y1="1404.842" y2="1417.842"/><line style="stroke:#a80036;stroke-width:1;stroke-dasharray:2,2" x1="930.5" x2="971.5" y1="1417.842" y2="1417.842"/><polygon fill="#A80036" points="940.5 1413.842 930.5 1417.842 940.5 1421.842 936.5 1417.842" style="stroke:#a80036;stroke-width:1"/><text x="936.5" y="1400.1" fill="#000" font-family="sans-serif" font-size="13" font-weight="bold" lengthAdjust="spacingAndGlyphs" textLength="18">23</text><text x="958.5" y="1400.1" fill="#000" font-family="sans-serif" font-size="13" lengthAdjust="spacingAndGlyphs" textLength="155">Format volume response</text><polygon fill="#A80036" points="663.5 1467.842 653.5 1471.842 663.5 1475.842 659.5 1471.842" style="stroke:#a80036;stroke-width:1"/><line style="stroke:#a80036;stroke-width:1;stroke-dasharray:2,2" x1="657.5" x2="928.5" y1="1471.842" y2="1471.842"/><text x="669.5" y="1467.41" fill="#000" font-family="sans-serif" font-size="13" font-weight="bold" lengthAdjust="spacingAndGlyphs" textLength="18">24</text><text x="691.5" y="1467.41" fill="#000" font-family="sans-serif" font-size="13" lengthAdjust="spacingAndGlyphs" textLength="231">Create volume response --scaleio01</text><polygon fill="#A80036" points="444.5 1522.152 434.5 1526.152 444.5 1530.152 440.5 1526.152" style="stroke:#a80036;stroke-width:1"/><line style="stroke:#a80036;stroke-width:1;stroke-dasharray:2,2" x1="438.5" x2="651.5" y1="1526.152" y2="1526.152"/><text x="450.5" y="1521.721" fill="#000" font-family="sans-serif" font-size="13" font-weight="bold" lengthAdjust="spacingAndGlyphs" textLength="18">25</text><text x="472.5" y="1521.721" fill="#000" font-family="sans-serif" font-size="13" lengthAdjust="spacingAndGlyphs" textLength="141">Create volume request</text><polygon fill="#A80036" points="98.5 1576.463 88.5 1580.463 98.5 1584.463 94.5 1580.463" style="stroke:#a80036;stroke-width:1"/><line style="stroke:#a80036;stroke-width:1;stroke-dasharray:2,2" x1="92.5" x2="432.5" y1="1580.463" y2="1580.463"/><text x="104.5" y="1576.031" fill="#000" font-family="sans-serif" font-size="13" font-weight="bold" lengthAdjust="spacingAndGlyphs" textLength="18">26</text><text x="126.5" y="1576.031" fill="#000" font-family="sans-serif" font-size="13" lengthAdjust="spacingAndGlyphs" textLength="234">Create container request --scaleio01</text></g></svg>